<svg width="46" height="46" viewBox="0 0 46 46" fill="none" xmlns="http://www.w3.org/2000/svg">
<path d="M45 14.0759V9.97181L42.1242 9.78092C41.9324 9.11281 41.6449 8.54014 41.3573 7.87202L43.2745 5.67679L40.3987 2.81345L38.1939 4.6269C37.6187 4.34057 36.9477 4.05423 36.2767 3.86334L36.0849 1H31.9629L31.7712 3.86334C31.1002 4.05423 30.525 4.34057 29.9498 4.6269L27.745 2.81345L24.8692 5.67679L26.6906 7.87202C26.403 8.44469 26.1154 9.11281 25.9237 9.78092L23.0479 9.97181V14.0759L25.9237 14.2668C26.1154 14.9349 26.403 15.603 26.6906 16.1757L24.8692 18.3709L27.745 21.2343L29.9498 19.4208C30.525 19.7072 31.196 19.9935 31.7712 20.1844L31.9629 23.0477H36.0849L36.2767 20.1844C36.9477 19.9935 37.5228 19.7072 38.1939 19.4208L40.3987 21.2343L43.2745 18.3709L41.4531 16.1757C41.7407 15.603 42.0283 14.9349 42.22 14.2668L45 14.0759Z" stroke="#DBDBDB" stroke-width="2" stroke-miterlimit="10"/>
<path d="M33.9765 8.54004C32.0593 8.54004 30.4297 10.0672 30.4297 12.0715C30.4297 13.9804 31.9635 15.603 33.9765 15.603C35.8938 15.603 37.5234 14.0758 37.5234 12.0715C37.5234 10.1626 35.8938 8.54004 33.9765 8.54004Z" stroke="#DBDBDB" stroke-width="2" stroke-miterlimit="10"/>
<path d="M33.9765 15.603C35.9354 15.603 37.5234 14.0219 37.5234 12.0715C37.5234 10.1211 35.9354 8.54004 33.9765 8.54004C32.0177 8.54004 30.4297 10.1211 30.4297 12.0715C30.4297 14.0219 32.0177 15.603 33.9765 15.603Z" stroke="#DBDBDB" stroke-width="2" stroke-miterlimit="10"/>
<path d="M22.9521 36.0281V31.924L20.0763 31.7331C19.8846 31.065 19.597 30.4923 19.3094 29.8242L21.2266 27.6289L18.3508 24.7656L16.146 26.5791C15.5709 26.2927 14.8998 26.0064 14.2288 25.8155L14.0371 22.9521H9.91506L9.72334 25.8155C9.05231 26.0064 8.47715 26.2927 7.90198 26.5791L5.69718 24.7656L2.82136 27.6289L4.64271 29.8242C4.35513 30.3968 4.06755 31.065 3.87583 31.7331L1 31.924V36.0281L3.87583 36.219C4.06755 36.8871 4.35513 37.5552 4.64271 38.1279L2.82136 40.3231L5.69718 43.1864L7.90198 41.373C8.47715 41.6593 9.14817 41.9457 9.72334 42.1365L9.91506 44.9999H14.0371L14.2288 42.1365C14.8998 41.9457 15.475 41.6593 16.146 41.373L18.3508 43.1864L21.2266 40.3231L19.4053 38.1279C19.6929 37.5552 19.9805 36.8871 20.1722 36.219L22.9521 36.0281Z" stroke="#DBDBDB" stroke-width="2" stroke-miterlimit="10"/>
<path d="M11.9277 30.5876C10.0105 30.5876 8.38086 32.1148 8.38086 34.1191C8.38086 36.028 9.91463 37.6506 11.9277 37.6506C13.8449 37.6506 15.4746 36.1234 15.4746 34.1191C15.4746 32.1148 13.8449 30.5876 11.9277 30.5876Z" stroke="#DBDBDB" stroke-width="2" stroke-miterlimit="10"/>
<path d="M11.9277 37.5553C13.8866 37.5553 15.4746 35.9743 15.4746 34.0239C15.4746 32.0735 13.8866 30.4924 11.9277 30.4924C9.96884 30.4924 8.38086 32.0735 8.38086 34.0239C8.38086 35.9743 9.96884 37.5553 11.9277 37.5553Z" stroke="#DBDBDB" stroke-width="2" stroke-miterlimit="10"/>
<path d="M35.8938 33.6423C35.8938 36.3148 33.689 38.51 31.0049 38.51H28.0332" stroke="#DBDBDB" stroke-width="2" stroke-miterlimit="10"/>
<path d="M35.8936 27.343V33.6424" stroke="#DBDBDB" stroke-width="2" stroke-miterlimit="10"/>
<path d="M39.0571 30.3972L35.8937 27.343L32.8262 30.3972" stroke="#DBDBDB" stroke-width="2" stroke-miterlimit="10"/>
<path d="M11.7366 10.6401C9.05246 10.6401 6.84766 12.8354 6.84766 15.5078V18.4666" stroke="#DBDBDB" stroke-width="2" stroke-miterlimit="10"/>
<path d="M18.0631 10.6401H11.7363" stroke="#DBDBDB" stroke-width="2" stroke-miterlimit="10"/>
<path d="M14.9961 7.58594L18.0636 10.6402L14.9961 13.7898" stroke="#DBDBDB" stroke-width="2" stroke-miterlimit="10"/>
</svg>
