<svg width="1440" height="502" viewBox="0 0 1440 502" fill="none" xmlns="http://www.w3.org/2000/svg">
<g clip-path="url(#clip0_12035_2068)">
<path d="M1140.39 -41H266V543H1174V-41H1140.39ZM1106.78 -40.4598H1139.92V-2.10268H1106.78V-40.4598ZM1139.92 36.7946H1106.78V-1.56245H1139.92V36.7946ZM1139.92 75.6919H1106.78V37.3349H1139.92V75.6919ZM1139.92 114.589H1106.78V76.2322H1139.92V114.589ZM1139.92 153.487H1106.78V115.13H1139.92V153.487ZM1139.92 192.384H1106.78V154.027H1139.92V192.384ZM1139.92 231.281H1106.78V192.924H1139.92V231.281ZM1139.92 270.179H1106.78V231.821H1139.92V270.179ZM1139.92 309.076H1106.78V270.719H1139.92V309.076ZM1139.92 347.973H1106.78V309.616H1139.92V347.973ZM1139.92 386.87H1106.78V348.513H1139.92V386.87ZM1139.92 425.768H1106.78V387.411H1139.92V425.768ZM1139.92 464.665H1106.78V426.308H1139.92V464.665ZM1139.92 503.562H1106.78V465.205H1139.92V503.562ZM300.084 465.205H333.223V503.562H300.084V465.205ZM300.084 426.308H333.223V464.665H300.084V426.308ZM300.084 387.411H333.223V425.768H300.084V387.411ZM300.084 348.513H333.223V386.87H300.084V348.513ZM300.084 309.616H333.223V347.973H300.084V309.616ZM300.084 270.719H333.223V309.076H300.084V270.719ZM300.084 231.821H333.223V270.179H300.084V231.821ZM300.084 192.924H333.223V231.281H300.084V192.924ZM300.084 154.027H333.223V192.384H300.084V154.027ZM300.084 115.13H333.223V153.487H300.084V115.13ZM300.084 76.2322H333.223V114.589H300.084V76.2322ZM300.084 37.3349H333.223V75.6919H300.084V37.3349ZM300.084 -1.56245H333.223V36.7946H300.084V-1.56245ZM1106.3 36.7946H1073.17V-1.56245H1106.3V36.7946ZM1106.3 75.6919H1073.17V37.3349H1106.3V75.6919ZM1106.3 114.589H1073.17V76.2322H1106.3V114.589ZM1106.3 153.487H1073.17V115.13H1106.3V153.487ZM1106.3 192.384H1073.17V154.027H1106.3V192.384ZM1106.3 231.281H1073.17V192.924H1106.3V231.281ZM1106.3 270.179H1073.17V231.821H1106.3V270.179ZM1106.3 309.076H1073.17V270.719H1106.3V309.076ZM1106.3 347.973H1073.17V309.616H1106.3V347.973ZM1106.3 386.87H1073.17V348.513H1106.3V386.87ZM1106.3 425.768H1073.17V387.411H1106.3V425.768ZM1106.3 464.665H1073.17V426.308H1106.3V464.665ZM333.696 426.308H366.835V464.665H333.696V426.308ZM333.696 387.411H366.835V425.768H333.696V387.411ZM333.696 348.513H366.835V386.87H333.696V348.513ZM333.696 309.616H366.835V347.973H333.696V309.616ZM333.696 270.719H366.835V309.076H333.696V270.719ZM333.696 231.821H366.835V270.179H333.696V231.821ZM333.696 192.924H366.835V231.281H333.696V192.924ZM333.696 154.027H366.835V192.384H333.696V154.027ZM333.696 115.13H366.835V153.487H333.696V115.13ZM333.696 76.2322H366.835V114.589H333.696V76.2322ZM333.696 37.3349H366.835V75.6919H333.696V37.3349ZM1072.69 75.6919H1039.55V37.3349H1072.69V75.6919ZM1072.69 114.589H1039.55V76.2322H1072.69V114.589ZM1072.69 153.487H1039.55V115.13H1072.69V153.487ZM1072.69 192.384H1039.55V154.027H1072.69V192.384ZM1072.69 231.281H1039.55V192.924H1072.69V231.281ZM1072.69 270.179H1039.55V231.821H1072.69V270.179ZM1072.69 309.076H1039.55V270.719H1072.69V309.076ZM1072.69 347.973H1039.55V309.616H1072.69V347.973ZM1072.69 386.87H1039.55V348.513H1072.69V386.87ZM1072.69 425.768H1039.55V387.411H1072.69V425.768ZM367.31 387.411H400.449V425.768H367.31V387.411ZM367.31 348.513H400.449V386.87H367.31V348.513ZM367.31 309.616H400.449V347.973H367.31V309.616ZM367.31 270.719H400.449V309.076H367.31V270.719ZM367.31 231.821H400.449V270.179H367.31V231.821ZM367.31 192.924H400.449V231.281H367.31V192.924ZM367.31 154.027H400.449V192.384H367.31V154.027ZM367.31 115.13H400.449V153.487H367.31V115.13ZM367.31 76.2322H400.449V114.589H367.31V76.2322ZM1039.08 114.589H1005.94V76.2322H1039.08V114.589ZM1039.08 153.487H1005.94V115.13H1039.08V153.487ZM1039.08 192.384H1005.94V154.027H1039.08V192.384ZM1039.08 231.281H1005.94V192.924H1039.08V231.281ZM1039.08 270.179H1005.94V231.821H1039.08V270.179ZM1039.08 309.076H1005.94V270.719H1039.08V309.076ZM1039.08 347.973H1005.94V309.616H1039.08V347.973ZM1039.08 386.87H1005.94V348.513H1039.08V386.87ZM400.921 348.513H434.06V386.87H400.921V348.513ZM400.921 309.616H434.06V347.973H400.921V309.616ZM400.921 270.719H434.06V309.076H400.921V270.719ZM400.921 231.821H434.06V270.179H400.921V231.821ZM400.921 192.924H434.06V231.281H400.921V192.924ZM400.921 154.027H434.06V192.384H400.921V154.027ZM400.921 115.13H434.06V153.487H400.921V115.13ZM1005.47 153.487H972.328V115.13H1005.47V153.487ZM1005.47 192.384H972.328V154.027H1005.47V192.384ZM1005.47 231.281H972.328V192.924H1005.47V231.281ZM1005.47 270.179H972.328V231.821H1005.47V270.179ZM1005.47 309.076H972.328V270.719H1005.47V309.076ZM1005.47 347.973H972.328V309.616H1005.47V347.973ZM434.533 309.616H467.672V347.973H434.533V309.616ZM434.533 270.719H467.672V309.076H434.533V270.719ZM434.533 231.821H467.672V270.179H434.533V231.821ZM434.533 192.924H467.672V231.281H434.533V192.924ZM434.533 154.027H467.672V192.384H434.533V154.027ZM971.855 192.384H938.716V154.027H971.855V192.384ZM971.855 231.281H938.716V192.924H971.855V231.281ZM971.855 270.179H938.716V231.821H971.855V270.179ZM971.855 309.076H938.716V270.719H971.855V309.076ZM468.145 270.719H501.284V309.076H468.145V270.719ZM468.145 231.821H501.284V270.179H468.145V231.821ZM468.145 192.924H501.284V231.281H468.145V192.924ZM938.241 231.281H905.102V192.924H938.241V231.281ZM938.241 270.179H905.102V231.821H938.241V270.179ZM501.759 231.821H534.898V270.179H501.759V231.821ZM535.37 231.821H568.509V270.179H535.37V231.821ZM568.982 231.821H602.121V270.179H568.982V231.821ZM602.593 231.821H635.732V270.179H602.593V231.821ZM636.205 231.821H669.344V270.179H636.205V231.821ZM669.819 231.821H702.958V270.179H669.819V231.821ZM703.431 231.821H736.569V270.179H703.431V231.821ZM737.042 231.821H770.181V270.179H737.042V231.821ZM770.654 231.821H803.793V270.179H770.654V231.821ZM804.268 231.821H837.407V270.179H804.268V231.821ZM837.879 231.821H871.018V270.179H837.879V231.821ZM871.491 231.821H904.63V270.179H871.491V231.821ZM904.63 231.281H871.491V192.924H904.63V231.281ZM871.018 231.281H837.879V192.924H871.018V231.281ZM837.407 231.281H804.268V192.924H837.407V231.281ZM803.795 231.281H770.656V192.924H803.795V231.281ZM770.181 231.281H737.042V192.924H770.181V231.281ZM736.569 231.281H703.431V192.924H736.569V231.281ZM702.958 231.281H669.819V192.924H702.958V231.281ZM669.346 231.281H636.207V192.924H669.346V231.281ZM635.732 231.281H602.593V192.924H635.732V231.281ZM602.121 231.281H568.982V192.924H602.121V231.281ZM568.509 231.281H535.37V192.924H568.509V231.281ZM534.898 231.281H501.759V192.924H534.898V231.281ZM501.759 270.719H534.898V309.076H501.759V270.719ZM535.37 270.719H568.509V309.076H535.37V270.719ZM568.982 270.719H602.121V309.076H568.982V270.719ZM602.593 270.719H635.732V309.076H602.593V270.719ZM636.205 270.719H669.344V309.076H636.205V270.719ZM669.819 270.719H702.958V309.076H669.819V270.719ZM703.431 270.719H736.569V309.076H703.431V270.719ZM737.042 270.719H770.181V309.076H737.042V270.719ZM770.654 270.719H803.793V309.076H770.654V270.719ZM804.268 270.719H837.407V309.076H804.268V270.719ZM837.879 270.719H871.018V309.076H837.879V270.719ZM871.491 270.719H904.63V309.076H871.491V270.719ZM905.102 270.719H938.241V309.076H905.102V270.719ZM938.241 192.384H905.102V154.027H938.241V192.384ZM904.63 192.384H871.491V154.027H904.63V192.384ZM871.018 192.384H837.879V154.027H871.018V192.384ZM837.407 192.384H804.268V154.027H837.407V192.384ZM803.795 192.384H770.656V154.027H803.795V192.384ZM770.181 192.384H737.042V154.027H770.181V192.384ZM736.569 192.384H703.431V154.027H736.569V192.384ZM702.958 192.384H669.819V154.027H702.958V192.384ZM669.346 192.384H636.207V154.027H669.346V192.384ZM635.732 192.384H602.593V154.027H635.732V192.384ZM602.121 192.384H568.982V154.027H602.121V192.384ZM568.509 192.384H535.37V154.027H568.509V192.384ZM534.898 192.384H501.759V154.027H534.898V192.384ZM501.286 192.384H468.147V154.027H501.286V192.384ZM468.145 309.616H501.284V347.973H468.145V309.616ZM501.759 309.616H534.898V347.973H501.759V309.616ZM535.37 309.616H568.509V347.973H535.37V309.616ZM568.982 309.616H602.121V347.973H568.982V309.616ZM602.593 309.616H635.732V347.973H602.593V309.616ZM636.205 309.616H669.344V347.973H636.205V309.616ZM669.819 309.616H702.958V347.973H669.819V309.616ZM703.431 309.616H736.569V347.973H703.431V309.616ZM737.042 309.616H770.181V347.973H737.042V309.616ZM770.654 309.616H803.793V347.973H770.654V309.616ZM804.268 309.616H837.407V347.973H804.268V309.616ZM837.879 309.616H871.018V347.973H837.879V309.616ZM871.491 309.616H904.63V347.973H871.491V309.616ZM905.102 309.616H938.241V347.973H905.102V309.616ZM938.714 309.616H971.853V347.973H938.714V309.616ZM971.855 153.487H938.716V115.13H971.855V153.487ZM938.241 153.487H905.102V115.13H938.241V153.487ZM904.63 153.487H871.491V115.13H904.63V153.487ZM871.018 153.487H837.879V115.13H871.018V153.487ZM837.407 153.487H804.268V115.13H837.407V153.487ZM803.795 153.487H770.656V115.13H803.795V153.487ZM770.181 153.487H737.042V115.13H770.181V153.487ZM736.569 153.487H703.431V115.13H736.569V153.487ZM702.958 153.487H669.819V115.13H702.958V153.487ZM669.346 153.487H636.207V115.13H669.346V153.487ZM635.732 153.487H602.593V115.13H635.732V153.487ZM602.121 153.487H568.982V115.13H602.121V153.487ZM568.509 153.487H535.37V115.13H568.509V153.487ZM534.898 153.487H501.759V115.13H534.898V153.487ZM501.286 153.487H468.147V115.13H501.286V153.487ZM467.672 153.487H434.533V115.13H467.672V153.487ZM434.533 348.513H467.672V386.87H434.533V348.513ZM468.145 348.513H501.284V386.87H468.145V348.513ZM501.759 348.513H534.898V386.87H501.759V348.513ZM535.37 348.513H568.509V386.87H535.37V348.513ZM568.982 348.513H602.121V386.87H568.982V348.513ZM602.593 348.513H635.732V386.87H602.593V348.513ZM636.205 348.513H669.344V386.87H636.205V348.513ZM669.819 348.513H702.958V386.87H669.819V348.513ZM703.431 348.513H736.569V386.87H703.431V348.513ZM737.042 348.513H770.181V386.87H737.042V348.513ZM770.654 348.513H803.793V386.87H770.654V348.513ZM804.268 348.513H837.407V386.87H804.268V348.513ZM837.879 348.513H871.018V386.87H837.879V348.513ZM871.491 348.513H904.63V386.87H871.491V348.513ZM905.102 348.513H938.241V386.87H905.102V348.513ZM938.714 348.513H971.853V386.87H938.714V348.513ZM972.328 348.513H1005.47V386.87H972.328V348.513ZM1005.47 114.589H972.328V76.2322H1005.47V114.589ZM971.855 114.589H938.716V76.2322H971.855V114.589ZM938.241 114.589H905.102V76.2322H938.241V114.589ZM904.63 114.589H871.491V76.2322H904.63V114.589ZM871.018 114.589H837.879V76.2322H871.018V114.589ZM837.407 114.589H804.268V76.2322H837.407V114.589ZM803.795 114.589H770.656V76.2322H803.795V114.589ZM770.181 114.589H737.042V76.2322H770.181V114.589ZM736.569 114.589H703.431V76.2322H736.569V114.589ZM702.958 114.589H669.819V76.2322H702.958V114.589ZM669.346 114.589H636.207V76.2322H669.346V114.589ZM635.732 114.589H602.593V76.2322H635.732V114.589ZM602.121 114.589H568.982V76.2322H602.121V114.589ZM568.509 114.589H535.37V76.2322H568.509V114.589ZM534.898 114.589H501.759V76.2322H534.898V114.589ZM501.286 114.589H468.147V76.2322H501.286V114.589ZM467.672 114.589H434.533V76.2322H467.672V114.589ZM434.06 114.589H400.921V76.2322H434.06V114.589ZM400.921 387.411H434.06V425.768H400.921V387.411ZM434.533 387.411H467.672V425.768H434.533V387.411ZM468.145 387.411H501.284V425.768H468.145V387.411ZM501.759 387.411H534.898V425.768H501.759V387.411ZM535.37 387.411H568.509V425.768H535.37V387.411ZM568.982 387.411H602.121V425.768H568.982V387.411ZM602.593 387.411H635.732V425.768H602.593V387.411ZM636.205 387.411H669.344V425.768H636.205V387.411ZM669.819 387.411H702.958V425.768H669.819V387.411ZM703.431 387.411H736.569V425.768H703.431V387.411ZM737.042 387.411H770.181V425.768H737.042V387.411ZM770.654 387.411H803.793V425.768H770.654V387.411ZM804.268 387.411H837.407V425.768H804.268V387.411ZM837.879 387.411H871.018V425.768H837.879V387.411ZM871.491 387.411H904.63V425.768H871.491V387.411ZM905.102 387.411H938.241V425.768H905.102V387.411ZM938.714 387.411H971.853V425.768H938.714V387.411ZM972.328 387.411H1005.47V425.768H972.328V387.411ZM1005.94 387.411H1039.08V425.768H1005.94V387.411ZM1039.08 75.6919H1005.94V37.3349H1039.08V75.6919ZM1005.47 75.6919H972.328V37.3349H1005.47V75.6919ZM971.855 75.6919H938.716V37.3349H971.855V75.6919ZM938.241 75.6919H905.102V37.3349H938.241V75.6919ZM904.63 75.6919H871.491V37.3349H904.63V75.6919ZM871.018 75.6919H837.879V37.3349H871.018V75.6919ZM837.407 75.6919H804.268V37.3349H837.407V75.6919ZM803.795 75.6919H770.656V37.3349H803.795V75.6919ZM770.181 75.6919H737.042V37.3349H770.181V75.6919ZM736.569 75.6919H703.431V37.3349H736.569V75.6919ZM702.958 75.6919H669.819V37.3349H702.958V75.6919ZM669.346 75.6919H636.207V37.3349H669.346V75.6919ZM635.732 75.6919H602.593V37.3349H635.732V75.6919ZM602.121 75.6919H568.982V37.3349H602.121V75.6919ZM568.509 75.6919H535.37V37.3349H568.509V75.6919ZM534.898 75.6919H501.759V37.3349H534.898V75.6919ZM501.286 75.6919H468.147V37.3349H501.286V75.6919ZM467.672 75.6919H434.533V37.3349H467.672V75.6919ZM434.06 75.6919H400.921V37.3349H434.06V75.6919ZM400.449 75.6919H367.31V37.3349H400.449V75.6919ZM367.31 426.308H400.449V464.665H367.31V426.308ZM400.921 426.308H434.06V464.665H400.921V426.308ZM434.533 426.308H467.672V464.665H434.533V426.308ZM468.145 426.308H501.284V464.665H468.145V426.308ZM501.759 426.308H534.898V464.665H501.759V426.308ZM535.37 426.308H568.509V464.665H535.37V426.308ZM568.982 426.308H602.121V464.665H568.982V426.308ZM602.593 426.308H635.732V464.665H602.593V426.308ZM636.205 426.308H669.344V464.665H636.205V426.308ZM669.819 426.308H702.958V464.665H669.819V426.308ZM703.431 426.308H736.569V464.665H703.431V426.308ZM737.042 426.308H770.181V464.665H737.042V426.308ZM770.654 426.308H803.793V464.665H770.654V426.308ZM804.268 426.308H837.407V464.665H804.268V426.308ZM837.879 426.308H871.018V464.665H837.879V426.308ZM871.491 426.308H904.63V464.665H871.491V426.308ZM905.102 426.308H938.241V464.665H905.102V426.308ZM938.714 426.308H971.853V464.665H938.714V426.308ZM972.328 426.308H1005.47V464.665H972.328V426.308ZM1005.94 426.308H1039.08V464.665H1005.94V426.308ZM1039.55 426.308H1072.69V464.665H1039.55V426.308ZM1072.69 36.7946H1039.55V-1.56245H1072.69V36.7946ZM1039.08 36.7946H1005.94V-1.56245H1039.08V36.7946ZM1005.47 36.7946H972.328V-1.56245H1005.47V36.7946ZM971.855 36.7946H938.716V-1.56245H971.855V36.7946ZM938.241 36.7946H905.102V-1.56245H938.241V36.7946ZM904.63 36.7946H871.491V-1.56245H904.63V36.7946ZM871.018 36.7946H837.879V-1.56245H871.018V36.7946ZM837.407 36.7946H804.268V-1.56245H837.407V36.7946ZM803.795 36.7946H770.656V-1.56245H803.795V36.7946ZM770.181 36.7946H737.042V-1.56245H770.181V36.7946ZM736.569 36.7946H703.431V-1.56245H736.569V36.7946ZM702.958 36.7946H669.819V-1.56245H702.958V36.7946ZM669.346 36.7946H636.207V-1.56245H669.346V36.7946ZM635.732 36.7946H602.593V-1.56245H635.732V36.7946ZM602.121 36.7946H568.982V-1.56245H602.121V36.7946ZM568.509 36.7946H535.37V-1.56245H568.509V36.7946ZM534.898 36.7946H501.759V-1.56245H534.898V36.7946ZM501.286 36.7946H468.147V-1.56245H501.286V36.7946ZM467.672 36.7946H434.533V-1.56245H467.672V36.7946ZM434.06 36.7946H400.921V-1.56245H434.06V36.7946ZM400.449 36.7946H367.31V-1.56245H400.449V36.7946ZM366.837 36.7946H333.698V-1.56245H366.837V36.7946ZM333.696 465.205H366.835V503.562H333.696V465.205ZM367.31 465.205H400.449V503.562H367.31V465.205ZM400.921 465.205H434.06V503.562H400.921V465.205ZM434.533 465.205H467.672V503.562H434.533V465.205ZM468.145 465.205H501.284V503.562H468.145V465.205ZM501.759 465.205H534.898V503.562H501.759V465.205ZM535.37 465.205H568.509V503.562H535.37V465.205ZM568.982 465.205H602.121V503.562H568.982V465.205ZM602.593 465.205H635.732V503.562H602.593V465.205ZM636.205 465.205H669.344V503.562H636.205V465.205ZM669.819 465.205H702.958V503.562H669.819V465.205ZM703.431 465.205H736.569V503.562H703.431V465.205ZM737.042 465.205H770.181V503.562H737.042V465.205ZM770.654 465.205H803.793V503.562H770.654V465.205ZM804.268 465.205H837.407V503.562H804.268V465.205ZM837.879 465.205H871.018V503.562H837.879V465.205ZM871.491 465.205H904.63V503.562H871.491V465.205ZM905.102 465.205H938.241V503.562H905.102V465.205ZM938.714 465.205H971.853V503.562H938.714V465.205ZM972.328 465.205H1005.47V503.562H972.328V465.205ZM1005.94 465.205H1039.08V503.562H1005.94V465.205ZM1039.55 465.205H1072.69V503.562H1039.55V465.205ZM1073.16 465.205H1106.3V503.562H1073.16V465.205ZM1073.16 -40.4598H1106.3V-2.10268H1073.16V-40.4598ZM1039.55 -40.4598H1072.69V-2.10268H1039.55V-40.4598ZM1005.94 -40.4598H1039.08V-2.10268H1005.94V-40.4598ZM972.328 -40.4598H1005.47V-2.10268H972.328V-40.4598ZM938.714 -40.4598H971.853V-2.10268H938.714V-40.4598ZM905.102 -40.4598H938.241V-2.10268H905.102V-40.4598ZM871.491 -40.4598H904.63V-2.10268H871.491V-40.4598ZM837.879 -40.4598H871.018V-2.10268H837.879V-40.4598ZM804.268 -40.4598H837.407V-2.10268H804.268V-40.4598ZM770.654 -40.4598H803.793V-2.10268H770.654V-40.4598ZM737.042 -40.4598H770.181V-2.10268H737.042V-40.4598ZM703.431 -40.4598H736.569V-2.10268H703.431V-40.4598ZM669.819 -40.4598H702.958V-2.10268H669.819V-40.4598ZM636.205 -40.4598H669.344V-2.10268H636.205V-40.4598ZM602.593 -40.4598H635.732V-2.10268H602.593V-40.4598ZM568.982 -40.4598H602.121V-2.10268H568.982V-40.4598ZM535.37 -40.4598H568.509V-2.10268H535.37V-40.4598ZM501.759 -40.4598H534.898V-2.10268H501.759V-40.4598ZM468.145 -40.4598H501.284V-2.10268H468.145V-40.4598ZM434.533 -40.4598H467.672V-2.10268H434.533V-40.4598ZM400.921 -40.4598H434.06V-2.10268H400.921V-40.4598ZM367.31 -40.4598H400.449V-2.10268H367.31V-40.4598ZM333.696 -40.4598H366.835V-2.10268H333.696V-40.4598ZM300.084 -40.4598H333.223V-2.10268H300.084V-40.4598ZM266.473 -40.4598H299.612V-2.10268H266.473V-40.4598ZM266.473 -1.56245H299.612V36.7946H266.473V-1.56245ZM266.473 37.3349H299.612V75.6919H266.473V37.3349ZM266.473 76.2322H299.612V114.589H266.473V76.2322ZM266.473 115.13H299.612V153.487H266.473V115.13ZM266.473 154.027H299.612V192.384H266.473V154.027ZM266.473 192.924H299.612V231.281H266.473V192.924ZM266.473 231.821H299.612V270.179H266.473V231.821ZM266.473 270.719H299.612V309.076H266.473V270.719ZM266.473 309.616H299.612V347.973H266.473V309.616ZM266.473 348.513H299.612V386.87H266.473V348.513ZM266.473 387.411H299.612V425.768H266.473V387.411ZM266.473 426.308H299.612V464.665H266.473V426.308ZM266.473 465.205H299.612V503.562H266.473V465.205ZM299.612 542.46H266.473V504.103H299.612V542.46ZM333.223 542.46H300.084V504.103H333.223V542.46ZM366.837 542.46H333.698V504.103H366.837V542.46ZM400.449 542.46H367.31V504.103H400.449V542.46ZM434.06 542.46H400.921V504.103H434.06V542.46ZM467.672 542.46H434.533V504.103H467.672V542.46ZM501.286 542.46H468.147V504.103H501.286V542.46ZM534.898 542.46H501.759V504.103H534.898V542.46ZM568.509 542.46H535.37V504.103H568.509V542.46ZM602.121 542.46H568.982V504.103H602.121V542.46ZM635.732 542.46H602.593V504.103H635.732V542.46ZM669.346 542.46H636.207V504.103H669.346V542.46ZM702.958 542.46H669.819V504.103H702.958V542.46ZM736.569 542.46H703.431V504.103H736.569V542.46ZM770.181 542.46H737.042V504.103H770.181V542.46ZM803.795 542.46H770.656V504.103H803.795V542.46ZM837.407 542.46H804.268V504.103H837.407V542.46ZM871.018 542.46H837.879V504.103H871.018V542.46ZM904.63 542.46H871.491V504.103H904.63V542.46ZM938.241 542.46H905.102V504.103H938.241V542.46ZM971.855 542.46H938.716V504.103H971.855V542.46ZM1005.47 542.46H972.328V504.103H1005.47V542.46ZM1039.08 542.46H1005.94V504.103H1039.08V542.46ZM1072.69 542.46H1039.55V504.103H1072.69V542.46ZM1106.3 542.46H1073.17V504.103H1106.3V542.46ZM1139.92 542.46H1106.78V504.103H1139.92V542.46ZM1173.53 542.46H1140.39V504.103H1173.53V542.46ZM1173.53 503.562H1140.39V465.205H1173.53V503.562ZM1173.53 464.665H1140.39V426.308H1173.53V464.665ZM1173.53 425.768H1140.39V387.411H1173.53V425.768ZM1173.53 386.87H1140.39V348.513H1173.53V386.87ZM1173.53 347.973H1140.39V309.616H1173.53V347.973ZM1173.53 309.076H1140.39V270.719H1173.53V309.076ZM1173.53 270.179H1140.39V231.821H1173.53V270.179ZM1173.53 231.281H1140.39V192.924H1173.53V231.281ZM1173.53 192.384H1140.39V154.027H1173.53V192.384ZM1173.53 153.487H1140.39V115.13H1173.53V153.487ZM1173.53 114.589H1140.39V76.2322H1173.53V114.589ZM1173.53 75.6919H1140.39V37.3349H1173.53V75.6919ZM1173.53 36.7946H1140.39V-1.56245H1173.53V36.7946ZM1140.39 -2.10268V-40.4598H1173.53V-2.10268H1140.39Z" fill="url(#paint0_radial_12035_2068)" fill-opacity="0.63"/>
</g>
<defs>
<radialGradient id="paint0_radial_12035_2068" cx="0" cy="0" r="1" gradientUnits="userSpaceOnUse" gradientTransform="translate(720 251) scale(368.364 421.023)">
<stop stop-color="#F2F2F2"/>
<stop offset="0.11" stop-color="#CBCBCB"/>
<stop offset="0.29" stop-color="#8E8E8E"/>
<stop offset="0.46" stop-color="#5B5B5B"/>
<stop offset="0.63" stop-color="#333333"/>
<stop offset="0.77" stop-color="#171717"/>
<stop offset="0.9" stop-color="#060606"/>
<stop offset="1"/>
</radialGradient>
<clipPath id="clip0_12035_2068">
<rect width="1440" height="502" fill="white"/>
</clipPath>
</defs>
</svg>
