<svg width="402" height="46" viewBox="0 0 402 46" fill="none" xmlns="http://www.w3.org/2000/svg">
<path d="M7.18871 28.1232H16.6051V33.6722H0.000286381V4.16181H7.18871V28.1232ZM28.9098 34.0085C26.6117 34.0085 24.5378 33.5181 22.6882 32.5372C20.8666 31.5563 19.4233 30.155 18.3583 28.3334C17.3214 26.5118 16.8029 24.3819 16.8029 21.9437C16.8029 19.5336 17.3354 17.4177 18.4004 15.596C19.4653 13.7464 20.9226 12.3311 22.7723 11.3502C24.6219 10.3694 26.6958 9.87892 28.9938 9.87892C31.2919 9.87892 33.3657 10.3694 35.2154 11.3502C37.065 12.3311 38.5224 13.7464 39.5873 15.596C40.6523 17.4177 41.1847 19.5336 41.1847 21.9437C41.1847 24.3539 40.6382 26.4838 39.5453 28.3334C38.4803 30.155 37.009 31.5563 35.1313 32.5372C33.2817 33.5181 31.2078 34.0085 28.9098 34.0085ZM28.9098 27.7869C30.283 27.7869 31.446 27.2825 32.3989 26.2736C33.3798 25.2647 33.8702 23.8214 33.8702 21.9437C33.8702 20.066 33.3938 18.6227 32.4409 17.6138C31.5161 16.6049 30.3671 16.1005 28.9938 16.1005C27.5926 16.1005 26.4295 16.6049 25.5047 17.6138C24.5799 18.5947 24.1175 20.038 24.1175 21.9437C24.1175 23.8214 24.5659 25.2647 25.4627 26.2736C26.3875 27.2825 27.5365 27.7869 28.9098 27.7869ZM52.1087 9.87892C53.7622 9.87892 55.2055 10.2152 56.4386 10.8878C57.6997 11.5604 58.6665 12.4432 59.3391 13.5362V10.2152H66.5276V33.6302C66.5276 35.7881 66.0932 37.7358 65.2244 39.4734C64.3837 41.239 63.0805 42.6402 61.3149 43.6771C59.5774 44.7141 57.4054 45.2325 54.7991 45.2325C51.324 45.2325 48.5075 44.4058 46.3495 42.7523C44.1916 41.1269 42.9585 38.9129 42.6502 36.1104H49.7546C49.9788 37.0072 50.5113 37.7078 51.352 38.2123C52.1928 38.7447 53.2297 39.011 54.4628 39.011C55.9481 39.011 57.1252 38.5766 57.9939 37.7078C58.8907 36.867 59.3391 35.5078 59.3391 33.6302V30.3092C58.6385 31.4022 57.6717 32.299 56.4386 32.9996C55.2055 33.6722 53.7622 34.0085 52.1087 34.0085C50.175 34.0085 48.4234 33.5181 46.854 32.5372C45.2846 31.5283 44.0375 30.113 43.1126 28.2914C42.2158 26.4417 41.7674 24.3118 41.7674 21.9017C41.7674 19.4915 42.2158 17.3756 43.1126 15.554C44.0375 13.7324 45.2846 12.3311 46.854 11.3502C48.4234 10.3694 50.175 9.87892 52.1087 9.87892ZM59.3391 21.9437C59.3391 20.1501 58.8347 18.7348 57.8258 17.6979C56.8449 16.661 55.6398 16.1425 54.2106 16.1425C52.7813 16.1425 51.5622 16.661 50.5533 17.6979C49.5724 18.7068 49.082 20.1081 49.082 21.9017C49.082 23.6953 49.5724 25.1246 50.5533 26.1895C51.5622 27.2264 52.7813 27.7449 54.2106 27.7449C55.6398 27.7449 56.8449 27.2264 57.8258 26.1895C58.8347 25.1526 59.3391 23.7373 59.3391 21.9437ZM73.5417 7.77704C72.2806 7.77704 71.2436 7.41271 70.4309 6.68406C69.6462 5.92739 69.2539 5.00256 69.2539 3.90958C69.2539 2.78858 69.6462 1.86375 70.4309 1.1351C71.2436 0.378426 72.2806 8.74586e-05 73.5417 8.74586e-05C74.7748 8.74586e-05 75.7837 0.378426 76.5684 1.1351C77.3811 1.86375 77.7875 2.78858 77.7875 3.90958C77.7875 5.00256 77.3811 5.92739 76.5684 6.68406C75.7837 7.41271 74.7748 7.77704 73.5417 7.77704ZM77.1149 10.2152V33.6722H69.9265V10.2152H77.1149ZM90.0652 34.0085C88.0194 34.0085 86.1977 33.6582 84.6003 32.9576C83.0029 32.2569 81.7418 31.3041 80.8169 30.099C79.8921 28.8659 79.3736 27.4927 79.2615 25.9793H86.3659C86.45 26.792 86.8283 27.4506 87.5009 27.9551C88.1735 28.4595 89.0002 28.7118 89.9811 28.7118C90.8779 28.7118 91.5645 28.5436 92.041 28.2073C92.5454 27.843 92.7976 27.3806 92.7976 26.8201C92.7976 26.1475 92.4473 25.657 91.7467 25.3488C91.0461 25.0124 89.9111 24.6481 88.3417 24.2558C86.6602 23.8634 85.2589 23.4571 84.1379 23.0367C83.0169 22.5883 82.05 21.9017 81.2373 20.9768C80.4246 20.024 80.0182 18.7488 80.0182 17.1514C80.0182 15.8062 80.3825 14.5871 81.1112 13.4942C81.8679 12.3731 82.9608 11.4904 84.3901 10.8458C85.8474 10.2012 87.571 9.87892 89.5607 9.87892C92.5034 9.87892 94.8154 10.6076 96.4969 12.0649C98.2065 13.5222 99.1874 15.4559 99.4396 17.8661H92.7976C92.6855 17.0533 92.3212 16.4088 91.7047 15.9323C91.1161 15.4559 90.3314 15.2177 89.3506 15.2177C88.5098 15.2177 87.8652 15.3858 87.4168 15.7221C86.9684 16.0304 86.7442 16.4648 86.7442 17.0253C86.7442 17.6979 87.0945 18.2024 87.7952 18.5387C88.5238 18.875 89.6448 19.2113 91.1582 19.5476C92.8957 19.996 94.311 20.4444 95.404 20.8928C96.4969 21.3131 97.4498 22.0138 98.2625 22.9946C99.1033 23.9475 99.5377 25.2367 99.5657 26.8621C99.5657 28.2353 99.1733 29.4684 98.3886 30.5614C97.632 31.6264 96.525 32.4671 95.0677 33.0837C93.6384 33.7002 91.9709 34.0085 90.0652 34.0085ZM115.236 27.5767V33.6722H111.578C108.972 33.6722 106.94 33.0416 105.483 31.7805C104.026 30.4913 103.297 28.4035 103.297 25.5169V16.1846H100.438V10.2152H103.297V4.49811H110.485V10.2152H115.194V16.1846H110.485V25.601C110.485 26.3016 110.654 26.8061 110.99 27.1143C111.326 27.4226 111.887 27.5767 112.671 27.5767H115.236ZM121.053 7.77704C119.792 7.77704 118.755 7.41271 117.943 6.68406C117.158 5.92739 116.765 5.00256 116.765 3.90958C116.765 2.78858 117.158 1.86375 117.943 1.1351C118.755 0.378426 119.792 8.74586e-05 121.053 8.74586e-05C122.286 8.74586e-05 123.295 0.378426 124.08 1.1351C124.893 1.86375 125.299 2.78858 125.299 3.90958C125.299 5.00256 124.893 5.92739 124.08 6.68406C123.295 7.41271 122.286 7.77704 121.053 7.77704ZM124.627 10.2152V33.6722H117.438V10.2152H124.627ZM126.605 21.9437C126.605 19.5055 127.095 17.3756 128.076 15.554C129.085 13.7324 130.472 12.3311 132.238 11.3502C134.032 10.3694 136.077 9.87892 138.376 9.87892C141.318 9.87892 143.77 10.6496 145.732 12.191C147.722 13.7324 149.025 15.9043 149.642 18.7068H141.991C141.346 16.9132 140.099 16.0164 138.249 16.0164C136.932 16.0164 135.881 16.5349 135.097 17.5718C134.312 18.5807 133.92 20.038 133.92 21.9437C133.92 23.8494 134.312 25.3207 135.097 26.3577C135.881 27.3666 136.932 27.871 138.249 27.871C140.099 27.871 141.346 26.9742 141.991 25.1806H149.642C149.025 27.9271 147.722 30.085 145.732 31.6544C143.742 33.2238 141.29 34.0085 138.376 34.0085C136.077 34.0085 134.032 33.5181 132.238 32.5372C130.472 31.5563 129.085 30.155 128.076 28.3334C127.095 26.5118 126.605 24.3819 126.605 21.9437ZM161.228 34.0085C159.182 34.0085 157.36 33.6582 155.763 32.9576C154.165 32.2569 152.904 31.3041 151.979 30.099C151.055 28.8659 150.536 27.4927 150.424 25.9793H157.528C157.612 26.792 157.991 27.4506 158.663 27.9551C159.336 28.4595 160.163 28.7118 161.144 28.7118C162.04 28.7118 162.727 28.5436 163.203 28.2073C163.708 27.843 163.96 27.3806 163.96 26.8201C163.96 26.1475 163.61 25.657 162.909 25.3488C162.209 25.0124 161.074 24.6481 159.504 24.2558C157.823 23.8634 156.421 23.4571 155.3 23.0367C154.179 22.5883 153.212 21.9017 152.4 20.9768C151.587 20.024 151.181 18.7488 151.181 17.1514C151.181 15.8062 151.545 14.5871 152.274 13.4942C153.03 12.3731 154.123 11.4904 155.553 10.8458C157.01 10.2012 158.733 9.87892 160.723 9.87892C163.666 9.87892 165.978 10.6076 167.659 12.0649C169.369 13.5222 170.35 15.4559 170.602 17.8661H163.96C163.848 17.0533 163.484 16.4088 162.867 15.9323C162.279 15.4559 161.494 15.2177 160.513 15.2177C159.672 15.2177 159.028 15.3858 158.579 15.7221C158.131 16.0304 157.907 16.4648 157.907 17.0253C157.907 17.6979 158.257 18.2024 158.958 18.5387C159.686 18.875 160.807 19.2113 162.321 19.5476C164.058 19.996 165.473 20.4444 166.566 20.8928C167.659 21.3131 168.612 22.0138 169.425 22.9946C170.266 23.9475 170.7 25.2367 170.728 26.8621C170.728 28.2353 170.336 29.4684 169.551 30.5614C168.794 31.6264 167.687 32.4671 166.23 33.0837C164.801 33.7002 163.133 34.0085 161.228 34.0085ZM191.487 4.16181C194.598 4.16181 197.316 4.77836 199.642 6.01146C201.968 7.24456 203.762 8.98212 205.023 11.2241C206.312 13.4381 206.957 16.0024 206.957 18.917C206.957 21.8036 206.312 24.3679 205.023 26.6099C203.762 28.8519 201.954 30.5894 199.6 31.8225C197.274 33.0556 194.57 33.6722 191.487 33.6722H180.431V4.16181H191.487ZM191.025 27.4506C193.743 27.4506 195.859 26.708 197.372 25.2226C198.886 23.7373 199.642 21.6354 199.642 18.917C199.642 16.1986 198.886 14.0827 197.372 12.5693C195.859 11.056 193.743 10.2993 191.025 10.2993H187.62V27.4506H191.025ZM207.743 21.9017C207.743 19.4915 208.192 17.3756 209.088 15.554C210.013 13.7324 211.26 12.3311 212.83 11.3502C214.399 10.3694 216.151 9.87892 218.084 9.87892C219.738 9.87892 221.181 10.2152 222.414 10.8878C223.675 11.5604 224.642 12.4432 225.315 13.5362V10.2152H232.503V33.6722H225.315V30.3512C224.614 31.4442 223.633 32.327 222.372 32.9996C221.139 33.6722 219.696 34.0085 218.042 34.0085C216.137 34.0085 214.399 33.5181 212.83 32.5372C211.26 31.5283 210.013 30.113 209.088 28.2914C208.192 26.4417 207.743 24.3118 207.743 21.9017ZM225.315 21.9437C225.315 20.1501 224.81 18.7348 223.802 17.6979C222.821 16.661 221.616 16.1425 220.186 16.1425C218.757 16.1425 217.538 16.661 216.529 17.6979C215.548 18.7068 215.058 20.1081 215.058 21.9017C215.058 23.6953 215.548 25.1246 216.529 26.1895C217.538 27.2264 218.757 27.7449 220.186 27.7449C221.616 27.7449 222.821 27.2264 223.802 26.1895C224.81 25.1526 225.315 23.7373 225.315 21.9437ZM245.445 34.0085C243.399 34.0085 241.577 33.6582 239.98 32.9576C238.382 32.2569 237.121 31.3041 236.196 30.099C235.272 28.8659 234.753 27.4927 234.641 25.9793H241.745C241.829 26.792 242.208 27.4506 242.88 27.9551C243.553 28.4595 244.38 28.7118 245.361 28.7118C246.257 28.7118 246.944 28.5436 247.42 28.2073C247.925 27.843 248.177 27.3806 248.177 26.8201C248.177 26.1475 247.827 25.657 247.126 25.3488C246.426 25.0124 245.291 24.6481 243.721 24.2558C242.04 23.8634 240.638 23.4571 239.517 23.0367C238.396 22.5883 237.43 21.9017 236.617 20.9768C235.804 20.024 235.398 18.7488 235.398 17.1514C235.398 15.8062 235.762 14.5871 236.491 13.4942C237.247 12.3731 238.34 11.4904 239.77 10.8458C241.227 10.2012 242.95 9.87892 244.94 9.87892C247.883 9.87892 250.195 10.6076 251.876 12.0649C253.586 13.5222 254.567 15.4559 254.819 17.8661H248.177C248.065 17.0533 247.701 16.4088 247.084 15.9323C246.496 15.4559 245.711 15.2177 244.73 15.2177C243.889 15.2177 243.245 15.3858 242.796 15.7221C242.348 16.0304 242.124 16.4648 242.124 17.0253C242.124 17.6979 242.474 18.2024 243.175 18.5387C243.903 18.875 245.024 19.2113 246.538 19.5476C248.275 19.996 249.691 20.4444 250.783 20.8928C251.876 21.3131 252.829 22.0138 253.642 22.9946C254.483 23.9475 254.917 25.2367 254.945 26.8621C254.945 28.2353 254.553 29.4684 253.768 30.5614C253.011 31.6264 251.904 32.4671 250.447 33.0837C249.018 33.7002 247.35 34.0085 245.445 34.0085ZM271.96 9.963C274.651 9.963 276.809 10.8598 278.434 12.6534C280.06 14.419 280.872 16.8572 280.872 19.9679V33.6722H273.726V20.9348C273.726 19.3654 273.32 18.1463 272.507 17.2775C271.694 16.4088 270.601 15.9744 269.228 15.9744C267.855 15.9744 266.762 16.4088 265.949 17.2775C265.136 18.1463 264.73 19.3654 264.73 20.9348V33.6722H257.541V2.56438H264.73V13.368C265.459 12.3311 266.453 11.5044 267.715 10.8878C268.976 10.2713 270.391 9.963 271.96 9.963ZM291.254 13.5362C291.927 12.4432 292.894 11.5604 294.155 10.8878C295.416 10.2152 296.859 9.87892 298.485 9.87892C300.419 9.87892 302.17 10.3694 303.74 11.3502C305.309 12.3311 306.542 13.7324 307.439 15.554C308.364 17.3756 308.826 19.4915 308.826 21.9017C308.826 24.3118 308.364 26.4417 307.439 28.2914C306.542 30.113 305.309 31.5283 303.74 32.5372C302.17 33.5181 300.419 34.0085 298.485 34.0085C296.831 34.0085 295.388 33.6862 294.155 33.0416C292.922 32.369 291.955 31.4862 291.254 30.3933V33.6722H284.066V2.56438H291.254V13.5362ZM301.512 21.9017C301.512 20.1081 301.007 18.7068 299.998 17.6979C299.017 16.661 297.798 16.1425 296.341 16.1425C294.912 16.1425 293.693 16.661 292.684 17.6979C291.703 18.7348 291.212 20.1501 291.212 21.9437C291.212 23.7373 291.703 25.1526 292.684 26.1895C293.693 27.2264 294.912 27.7449 296.341 27.7449C297.77 27.7449 298.989 27.2264 299.998 26.1895C301.007 25.1246 301.512 23.6953 301.512 21.9017ZM321.473 34.0085C319.175 34.0085 317.101 33.5181 315.252 32.5372C313.43 31.5563 311.987 30.155 310.922 28.3334C309.885 26.5118 309.366 24.3819 309.366 21.9437C309.366 19.5336 309.899 17.4177 310.964 15.596C312.029 13.7464 313.486 12.3311 315.336 11.3502C317.185 10.3694 319.259 9.87892 321.557 9.87892C323.855 9.87892 325.929 10.3694 327.779 11.3502C329.629 12.3311 331.086 13.7464 332.151 15.596C333.216 17.4177 333.748 19.5336 333.748 21.9437C333.748 24.3539 333.202 26.4838 332.109 28.3334C331.044 30.155 329.573 31.5563 327.695 32.5372C325.845 33.5181 323.771 34.0085 321.473 34.0085ZM321.473 27.7869C322.846 27.7869 324.01 27.2825 324.962 26.2736C325.943 25.2647 326.434 23.8214 326.434 21.9437C326.434 20.066 325.957 18.6227 325.004 17.6138C324.08 16.6049 322.931 16.1005 321.557 16.1005C320.156 16.1005 318.993 16.6049 318.068 17.6138C317.143 18.5947 316.681 20.038 316.681 21.9437C316.681 23.8214 317.129 25.2647 318.026 26.2736C318.951 27.2825 320.1 27.7869 321.473 27.7869ZM334.331 21.9017C334.331 19.4915 334.779 17.3756 335.676 15.554C336.601 13.7324 337.848 12.3311 339.418 11.3502C340.987 10.3694 342.738 9.87892 344.672 9.87892C346.326 9.87892 347.769 10.2152 349.002 10.8878C350.263 11.5604 351.23 12.4432 351.903 13.5362V10.2152H359.091V33.6722H351.903V30.3512C351.202 31.4442 350.221 32.327 348.96 32.9996C347.727 33.6722 346.284 34.0085 344.63 34.0085C342.724 34.0085 340.987 33.5181 339.418 32.5372C337.848 31.5283 336.601 30.113 335.676 28.2914C334.779 26.4417 334.331 24.3118 334.331 21.9017ZM351.903 21.9437C351.903 20.1501 351.398 18.7348 350.389 17.6979C349.408 16.661 348.203 16.1425 346.774 16.1425C345.345 16.1425 344.126 16.661 343.117 17.6979C342.136 18.7068 341.645 20.1081 341.645 21.9017C341.645 23.6953 342.136 25.1246 343.117 26.1895C344.126 27.2264 345.345 27.7449 346.774 27.7449C348.203 27.7449 349.408 27.2264 350.389 26.1895C351.398 25.1526 351.903 23.7373 351.903 21.9437ZM369.678 14.1247C370.519 12.8356 371.57 11.8267 372.831 11.098C374.092 10.3413 375.494 9.963 377.035 9.963V17.5718H375.059C373.266 17.5718 371.92 17.9641 371.024 18.7488C370.127 19.5055 369.678 20.8507 369.678 22.7845V33.6722H362.49V10.2152H369.678V14.1247ZM377.24 21.9017C377.24 19.4915 377.688 17.3756 378.585 15.554C379.51 13.7324 380.757 12.3311 382.327 11.3502C383.896 10.3694 385.648 9.87892 387.581 9.87892C389.123 9.87892 390.524 10.2012 391.785 10.8458C393.074 11.4904 394.083 12.3591 394.812 13.4521V2.56438H402V33.6722H394.812V30.3092C394.139 31.4302 393.172 32.327 391.911 32.9996C390.678 33.6722 389.235 34.0085 387.581 34.0085C385.648 34.0085 383.896 33.5181 382.327 32.5372C380.757 31.5283 379.51 30.113 378.585 28.2914C377.688 26.4417 377.24 24.3118 377.24 21.9017ZM394.812 21.9437C394.812 20.1501 394.307 18.7348 393.298 17.6979C392.317 16.661 391.112 16.1425 389.683 16.1425C388.254 16.1425 387.035 16.661 386.026 17.6979C385.045 18.7068 384.555 20.1081 384.555 21.9017C384.555 23.6953 385.045 25.1246 386.026 26.1895C387.035 27.2264 388.254 27.7449 389.683 27.7449C391.112 27.7449 392.317 27.2264 393.298 26.1895C394.307 25.1526 394.812 23.7373 394.812 21.9437Z" fill="url(#paint0_linear_12037_1786)"/>
<defs>
<linearGradient id="paint0_linear_12037_1786" x1="194.991" y1="-56.7739" x2="223.144" y2="92.0375" gradientUnits="userSpaceOnUse">
<stop stop-color="white"/>
<stop offset="1" stop-color="#71717A"/>
</linearGradient>
</defs>
</svg>
