<svg width="64" height="38" viewBox="0 0 64 38" fill="none" xmlns="http://www.w3.org/2000/svg">
<path d="M30.5622 27.0457C30.5622 28.8826 29.0529 30.3716 27.1913 30.3716C25.3295 30.3716 23.8203 28.8826 23.8203 27.0457C23.8203 25.2088 25.3295 23.7197 27.1913 23.7197C29.0529 23.7197 30.5622 25.2088 30.5622 27.0457Z" stroke="white" stroke-width="2" stroke-miterlimit="10" stroke-linecap="round" stroke-linejoin="round"/>
<path d="M30.5625 23.4012V30.6902" stroke="white" stroke-width="2" stroke-miterlimit="10" stroke-linecap="round" stroke-linejoin="round"/>
<path d="M40.3894 27.0457C40.3894 28.8826 38.8802 30.3716 37.0185 30.3716C35.1568 30.3716 33.6475 28.8826 33.6475 27.0457C33.6475 25.2088 35.1568 23.7197 37.0185 23.7197C38.8802 23.7197 40.3894 25.2088 40.3894 27.0457Z" stroke="white" stroke-width="2" stroke-miterlimit="10" stroke-linecap="round" stroke-linejoin="round"/>
<path d="M40.3896 23.4012V30.6902" stroke="white" stroke-width="2" stroke-miterlimit="10" stroke-linecap="round" stroke-linejoin="round"/>
<path d="M46.7874 25.0646C48.4822 25.0646 49.8561 26.3239 49.8561 27.8774C49.8561 29.4309 48.4822 30.6902 46.7874 30.6902C45.0926 30.6902 43.7188 29.4309 43.7188 27.8774" stroke="white" stroke-width="2" stroke-miterlimit="10" stroke-linecap="round" stroke-linejoin="round"/>
<path d="M46.7874 25.0645C45.0926 25.0645 43.7188 23.8053 43.7188 22.2517C43.7188 20.6983 45.0926 19.439 46.7874 19.439C48.4822 19.439 49.8561 20.6983 49.8561 22.2517" stroke="white" stroke-width="2" stroke-miterlimit="10" stroke-linecap="round" stroke-linejoin="round"/>
<path d="M17.6312 25.0646C19.326 25.0646 20.6999 26.3239 20.6999 27.8774C20.6999 29.4309 19.326 30.6902 17.6312 30.6902C15.9365 30.6902 14.5625 29.4309 14.5625 27.8774" stroke="white" stroke-width="2" stroke-miterlimit="10" stroke-linecap="round" stroke-linejoin="round"/>
<path d="M17.6312 25.0645C15.9365 25.0645 14.5625 23.8053 14.5625 22.2517C14.5625 20.6983 15.9365 19.439 17.6312 19.439C19.326 19.439 20.6999 20.6983 20.6999 22.2517" stroke="white" stroke-width="2" stroke-miterlimit="10" stroke-linecap="round" stroke-linejoin="round"/>
<path d="M34.1826 37H54.6084C59.1469 37 62.9338 33.4422 62.9987 28.9646C63.0568 24.9545 60.1671 21.5554 56.2761 20.835C55.3714 20.6676 54.7427 19.8645 54.7866 18.9576C55.0543 13.4408 49.5647 9.26713 44.2628 10.7841C43.3503 11.0452 42.3853 10.5999 42.0308 9.73017C41.4227 8.23826 40.5585 6.87546 39.4947 5.69151" stroke="white" stroke-width="2" stroke-miterlimit="10" stroke-linecap="round" stroke-linejoin="round"/>
<path d="M36.1283 2.94413C34.0215 1.70983 31.5624 1 28.9345 1C21.366 1 15.2533 6.8597 14.8452 14.1334C14.7877 15.158 13.8653 15.9207 12.8306 15.8162C6.62848 15.1897 0.941695 20.0196 1.00045 26.4831C1.05347 32.3267 5.95571 37 11.8784 37H29.8169" stroke="white" stroke-width="2" stroke-miterlimit="10" stroke-linecap="round" stroke-linejoin="round"/>
</svg>
