<svg width="44" height="44" viewBox="0 0 44 44" fill="none" xmlns="http://www.w3.org/2000/svg">
<path d="M32.7443 44C24.072 44 15.8607 40.573 9.63159 34.333C3.428 28.1312 0 19.9349 0 11.2651C0 9.20661 0.895596 7.23724 2.44321 5.86914L7.40609 1.13809C8.17353 0.409083 9.17105 0 10.2199 0C11.5757 0 12.8419 0.677684 13.6093 1.80304L18.6745 8.8998C19.1732 9.60296 19.4419 10.4215 19.4419 11.2651C19.4419 12.4291 18.9432 13.5541 18.0607 14.334L13.993 17.9146C13.7629 18.1446 13.3024 18.72 13.3024 19.449C13.2897 21.418 14.8628 24.2569 17.306 26.699C19.7361 29.1288 22.5758 30.7014 24.5453 30.7014H24.5581C25.2873 30.7014 25.8629 30.241 26.1315 29.9597L29.6746 25.9449C31.0176 24.4232 33.4604 24.1419 35.1103 25.3182L42.2092 30.3946C43.3221 31.1491 44 32.4149 44 33.7703C44 34.8189 43.6035 35.8292 42.8616 36.5833L38.1037 41.5833C36.7734 43.1047 34.8034 44 32.7443 44ZM10.2326 2.05853C9.70841 2.05853 9.20927 2.26344 8.82555 2.6212L3.82446 7.3781C2.68604 8.38807 2.04675 9.79476 2.04675 11.2651C2.04675 19.385 5.25703 27.0699 11.0896 32.8881C16.9223 38.7317 24.6221 41.9538 32.7443 41.9538C34.2151 41.9538 35.6222 41.3147 36.5943 40.2021L41.378 35.177C41.749 34.7934 41.9409 34.2948 41.9409 33.7703C41.9409 33.0926 41.5954 32.4532 41.0325 32.0695L33.921 26.9931C33.1022 26.4049 31.8873 26.5458 31.2094 27.313L27.6278 31.3664C26.7326 32.2745 25.6583 32.7472 24.5712 32.7472C24.5581 32.7472 24.5581 32.7472 24.5453 32.7472C22.0257 32.7472 18.7 30.9828 15.8607 28.1439C13.0082 25.2927 11.2433 21.9552 11.256 19.4363C11.256 18.3492 11.742 17.2751 12.599 16.4184L16.7049 12.7868C17.1396 12.3905 17.3955 11.8405 17.3955 11.2524C17.3955 10.8306 17.2674 10.4215 17.0118 10.0761L11.9339 2.97934C11.5502 2.40392 10.9105 2.05853 10.2326 2.05853Z" fill="white"/>
<path d="M26.6049 21.8784V17.4028C24.9164 17.4028 23.5352 16.022 23.5352 14.334V3.08157C23.5352 1.39391 24.9164 0.0126953 26.6049 0.0126953H40.9303C42.6188 0.0126953 44.0001 1.39391 44.0001 3.08157V14.334C44.0001 16.022 42.6188 17.4028 40.9303 17.4028H34.0489L26.6049 21.8784ZM26.6049 2.05848C26.0421 2.05848 25.5815 2.51889 25.5815 3.08157V14.334C25.5815 14.8966 26.0421 15.357 26.6049 15.357H28.6513V18.2596L33.486 15.357H40.9303C41.4932 15.357 41.9537 14.8966 41.9537 14.334V3.08157C41.9537 2.51889 41.4932 2.05848 40.9303 2.05848H26.6049Z" fill="white"/>
</svg>
