<svg width="64" height="64" viewBox="0 0 64 64" fill="none" xmlns="http://www.w3.org/2000/svg">
  <rect x="8" y="16" width="48" height="32" rx="4" stroke="currentColor" stroke-width="2" fill="none"/>
  <rect x="12" y="20" width="40" height="24" rx="2" fill="currentColor" opacity="0.05"/>
  <rect x="14" y="24" width="8" height="4" rx="1" fill="currentColor" opacity="0.6"/>
  <rect x="26" y="24" width="12" height="4" rx="1" fill="currentColor" opacity="0.4"/>
  <rect x="42" y="24" width="8" height="4" rx="1" fill="currentColor" opacity="0.6"/>
  <rect x="14" y="32" width="16" height="4" rx="1" fill="currentColor" opacity="0.4"/>
  <rect x="34" y="32" width="8" height="4" rx="1" fill="currentColor" opacity="0.6"/>
  <rect x="46" y="32" width="4" height="4" rx="1" fill="currentColor" opacity="0.4"/>
  <rect x="14" y="40" width="6" height="4" rx="1" fill="currentColor" opacity="0.6"/>
  <rect x="24" y="40" width="20" height="4" rx="1" fill="currentColor" opacity="0.4"/>
  <rect x="48" y="40" width="2" height="4" rx="1" fill="currentColor" opacity="0.6"/>
  <path d="M32 8L28 4L36 4L32 8Z" fill="currentColor" opacity="0.6"/>
  <rect x="28" y="8" width="8" height="4" rx="2" fill="currentColor" opacity="0.4"/>
  <circle cx="16" cy="56" r="4" stroke="currentColor" stroke-width="2" fill="none"/>
  <circle cx="32" cy="56" r="4" stroke="currentColor" stroke-width="2" fill="none"/>
  <circle cx="48" cy="56" r="4" stroke="currentColor" stroke-width="2" fill="none"/>
  <path d="M32 48L32 52" stroke="currentColor" stroke-width="2" stroke-linecap="round"/>
  <path d="M16 48L16 52" stroke="currentColor" stroke-width="2" stroke-linecap="round"/>
  <path d="M48 48L48 52" stroke="currentColor" stroke-width="2" stroke-linecap="round"/>
</svg>