<?xml version="1.0" encoding="UTF-8"?>
<svg id="Layer_1" data-name="Layer 1" xmlns="http://www.w3.org/2000/svg" viewBox="0 0 458.31 424.34">
  <defs>
    <style>
      .cls-1 {
        fill: #fff;
      }
    </style>
  </defs>
  <path class="cls-1" d="M134.63,232.59c-44.58,0-89.16.01-133.75.02-1.83-20.29-2.88-63.01,18.85-109.66C52.87,51.8,114.83,23.38,129.68,17.05,184.89-6.48,233.79.46,247.02,2.7c39.46,6.68,68.03,23.38,83.47,34.03-9.74,9.73-19.48,19.47-29.22,29.2-12.26-7.4-56.57-32.08-115.34-23.13-51.47,7.84-83.72,36.85-93.96,46.86-41.13,40.2-48.78,88.27-50.52,102.6h133.52c-13.45,13.45-26.9,26.9-40.34,40.34h0Z"/>
  <path class="cls-1" d="M233.07,237.35l49.86-49.86c50.91.06,101.81.13,152.72.19,13.44,1.36,23.45,13.21,22.61,26.45-.82,12.89-11.68,23.24-24.83,23.39-66.79-.06-133.58-.11-200.36-.17h0Z"/>
  <path class="cls-1" d="M411.49,283.71h-43.56c-6.38,13.66-18.38,34.89-39.93,54.67-45.03,41.33-97.66,45.04-108.72,45.6-9.94.5-71.99,2.64-122.47-42.37-16.03-14.3-26.29-29.25-32.55-40.01-9.35,9.8-18.71,19.6-28.06,29.4,10.24,15.15,29.92,40.07,62.58,60.68,15.31,9.66,47.27,27.08,91.32,31.58,72.92,7.44,126.31-25.92,137.96-33.56,8.43-5.53,53.17-35.75,78.06-92.42,2.43-5.53,4.2-10.25,5.38-13.57h-.01Z"/>
</svg>