<svg width="64" height="64" viewBox="0 0 64 64" fill="none" xmlns="http://www.w3.org/2000/svg">
  <ellipse cx="32" cy="48" rx="24" ry="8" stroke="currentColor" stroke-width="2" fill="none" opacity="0.3"/>
  <ellipse cx="32" cy="32" rx="20" ry="6" stroke="currentColor" stroke-width="2" fill="none" opacity="0.5"/>
  <ellipse cx="32" cy="16" rx="16" ry="4" stroke="currentColor" stroke-width="2" fill="currentColor" opacity="0.1"/>
  <path d="M16 16V44C16 46.2091 23.1634 48 32 48C40.8366 48 48 46.2091 48 44V16" stroke="currentColor" stroke-width="2" fill="none"/>
  <path d="M20 32V40C20 41.1046 25.3726 42 32 42C38.6274 42 44 41.1046 44 40V32" stroke="currentColor" stroke-width="2" fill="none"/>
  <circle cx="24" cy="16" r="1.5" fill="currentColor"/>
  <circle cx="32" cy="16" r="1.5" fill="currentColor"/>
  <circle cx="40" cy="16" r="1.5" fill="currentColor"/>
  <rect x="28" y="6" width="8" height="4" rx="2" fill="currentColor" opacity="0.6"/>
  <path d="M32 6L28 2L36 2L32 6Z" fill="currentColor" opacity="0.4"/>
</svg>