<svg width="64" height="64" viewBox="0 0 64 64" fill="none" xmlns="http://www.w3.org/2000/svg">
  <circle cx="32" cy="32" r="20" stroke="currentColor" stroke-width="2" fill="none"/>
  <circle cx="32" cy="32" r="3" fill="currentColor"/>
  <path d="M32 12L36 20L44 16L40 24L48 28L40 32L44 40L36 36L32 44L28 36L20 40L24 32L16 28L24 24L20 16L28 20L32 12Z" stroke="currentColor" stroke-width="2" fill="currentColor" opacity="0.1"/>
  <rect x="26" y="4" width="12" height="8" rx="2" stroke="currentColor" stroke-width="2" fill="none"/>
  <rect x="4" y="26" width="8" height="12" rx="2" stroke="currentColor" stroke-width="2" fill="none"/>
  <rect x="52" y="26" width="8" height="12" rx="2" stroke="currentColor" stroke-width="2" fill="none"/>
  <rect x="26" y="52" width="12" height="8" rx="2" stroke="currentColor" stroke-width="2" fill="none"/>
  <circle cx="32" cy="8" r="2" fill="currentColor"/>
  <circle cx="8" cy="32" r="2" fill="currentColor"/>
  <circle cx="56" cy="32" r="2" fill="currentColor"/>
  <circle cx="32" cy="56" r="2" fill="currentColor"/>
  <path d="M32 20L32 24" stroke="currentColor" stroke-width="2" stroke-linecap="round"/>
  <path d="M32 40L32 44" stroke="currentColor" stroke-width="2" stroke-linecap="round"/>
  <path d="M20 32L24 32" stroke="currentColor" stroke-width="2" stroke-linecap="round"/>
  <path d="M40 32L44 32" stroke="currentColor" stroke-width="2" stroke-linecap="round"/>
</svg>